<svg xmlns="http://www.w3.org/2000/svg" width="1010" height="784" viewBox="0 0 1010 784" version="1.1"><path d="M 518 62.165 C 508.293 64.167, 500.725 69.992, 496.314 78.855 C 494.726 82.046, 494.463 85.794, 494.202 108.962 C 493.985 128.266, 494.250 136.594, 495.181 139.748 C 497.041 146.048, 502.675 152.838, 509 156.401 C 513.953 159.192, 515.345 159.500, 523 159.500 C 530.655 159.500, 532.047 159.192, 537 156.401 C 543.325 152.838, 548.959 146.048, 550.819 139.748 C 551.750 136.594, 552.015 128.266, 551.798 108.962 C 551.537 85.794, 551.274 82.046, 549.686 78.855 C 545.425 70.294, 537.510 64.030, 529 62.486 C 527.075 62.137, 524.825 61.712, 524 61.543 C 523.175 61.375, 520.475 61.654, 518 62.165 M 515.962 82.889 L 512.500 85.777 512.198 108.878 C 511.861 134.658, 512.418 137.565, 518.257 140.479 C 522.089 142.390, 523.911 142.390, 527.743 140.479 C 533.582 137.565, 534.139 134.658, 533.802 108.878 L 533.500 85.777 530.038 82.889 C 527.640 80.888, 525.477 80, 523 80 C 520.523 80, 518.360 80.888, 515.962 82.889 M 352.788 88.828 C 341.745 92.748, 333.929 103.564, 333.762 115.159 C 333.623 124.765, 334.089 125.826, 351.292 155 C 352.427 156.925, 354.599 160.750, 356.119 163.500 C 359.488 169.595, 364.038 174.072, 369.967 177.127 C 373.623 179.010, 375.985 179.423, 382.967 179.399 C 393.082 179.364, 397.380 177.567, 403.676 170.735 C 409.928 163.953, 411.508 159.841, 411.451 150.500 C 411.401 142.191, 410.970 140.999, 403.308 128 C 400.205 122.736, 394.075 112.074, 391.234 107 C 388.464 102.054, 385.138 97.072, 383.533 95.467 C 376.046 87.980, 363.070 85.178, 352.788 88.828 M 674.239 88.539 C 665.736 91.214, 661.194 95.520, 654.766 107 C 651.925 112.074, 645.795 122.736, 642.692 128 C 634.846 141.312, 634.568 142.096, 634.542 151 C 634.514 160.664, 635.611 163.453, 642.290 170.699 C 648.621 177.567, 652.905 179.364, 663.033 179.399 C 670.015 179.423, 672.377 179.010, 676.033 177.127 C 681.962 174.072, 686.512 169.595, 689.881 163.500 C 692.813 158.194, 693.146 157.617, 703.172 140.500 C 710.596 127.826, 710.902 127.134, 711.940 120.712 C 715.383 99.399, 695.002 82.005, 674.239 88.539 M 355.077 109.077 C 350.804 113.349, 350.920 117.825, 355.500 125.430 C 357.425 128.627, 359 131.355, 359 131.493 C 359 131.631, 361.475 135.869, 364.500 140.911 C 367.525 145.953, 370 150.295, 370 150.560 C 370 152.210, 375.816 159.371, 378.127 160.565 C 382.503 162.829, 385.528 162.311, 389.429 158.632 C 394.647 153.711, 394.409 149.418, 388.357 139.279 C 385.804 135, 382.134 128.575, 380.201 125 C 378.269 121.425, 375.858 117.306, 374.844 115.846 C 373.830 114.386, 373 112.782, 373 112.283 C 373 111.783, 371.738 110.165, 370.195 108.687 C 367.979 106.564, 366.422 106, 362.772 106 C 358.948 106, 357.625 106.529, 355.077 109.077 M 675.687 108.805 C 674.209 110.347, 673 111.965, 673 112.400 C 673 112.835, 672.170 114.386, 671.156 115.846 C 670.142 117.306, 667.731 121.425, 665.799 125 C 663.866 128.575, 660.196 135, 657.643 139.279 C 651.591 149.418, 651.353 153.711, 656.571 158.632 C 660.472 162.311, 663.497 162.829, 667.873 160.565 C 670.184 159.371, 676 152.210, 676 150.560 C 676 150.295, 678.475 145.953, 681.500 140.911 C 684.525 135.869, 687 131.631, 687 131.493 C 687 131.355, 688.575 128.627, 690.500 125.430 C 695.080 117.825, 695.196 113.349, 690.923 109.077 C 688.353 106.507, 687.065 106, 683.110 106 C 679.227 106, 677.891 106.505, 675.687 108.805 M 499.889 182.444 C 499.563 182.770, 494.167 183.482, 487.898 184.026 C 481.629 184.570, 474.250 185.444, 471.500 185.968 C 468.750 186.493, 463.809 187.365, 460.520 187.906 C 448.147 189.942, 433.873 193.645, 415.229 199.656 C 411.230 200.945, 407.496 202, 406.931 202 C 406.366 202, 404.041 202.900, 401.764 204 C 399.487 205.100, 397.048 206, 396.343 206 C 395.638 206, 393.585 206.797, 391.780 207.771 C 389.976 208.744, 386.700 210.155, 384.500 210.906 C 377.309 213.360, 349.300 226.865, 340 232.363 C 337.525 233.825, 333.623 235.950, 331.329 237.084 C 323.570 240.920, 321.973 250.183, 328.396 254.100 C 332.698 256.723, 334.271 256.521, 341.862 252.369 C 358.016 243.532, 368.514 238.119, 377 234.248 C 392.640 227.114, 401.078 223.744, 401.712 224.379 C 401.961 224.628, 396.803 230.157, 390.250 236.666 C 379.547 247.296, 364 266.367, 364 268.864 C 364 269.397, 363.636 269.983, 363.191 270.167 C 362.442 270.475, 360.356 273.989, 353.621 286.285 C 352.179 288.917, 351 291.692, 351 292.452 C 351 293.212, 350.616 293.983, 350.147 294.167 C 349.275 294.508, 346.111 302.557, 343.335 311.500 C 342.481 314.250, 341.412 317.400, 340.961 318.500 C 340.509 319.600, 339.623 322.975, 338.993 326 C 338.362 329.025, 337.461 332.850, 336.990 334.500 C 334.030 344.873, 332.886 379.202, 334.969 395.169 C 336.755 408.859, 338.506 416.217, 343.733 432 C 347.654 443.839, 360.074 470.223, 363.033 473 C 363.326 473.275, 365.024 475.806, 366.806 478.624 C 368.588 481.442, 370.824 484.664, 371.773 485.784 C 372.723 486.904, 375.047 489.773, 376.938 492.160 C 378.829 494.547, 385.017 501.117, 390.688 506.759 C 396.360 512.402, 401 517.239, 401 517.509 C 401 518.341, 398.067 518.052, 396.236 517.040 C 395.281 516.511, 391.125 514.671, 387 512.951 C 378.013 509.203, 355.510 498.282, 352 495.965 C 350.625 495.058, 347.025 493.025, 344 491.448 C 333.678 486.066, 297.647 461.693, 285.060 451.577 C 267.825 437.724, 267.248 437.215, 252.127 422.507 C 236.813 407.612, 226.597 395.786, 218.001 383.002 C 211.495 373.325, 210.749 370.156, 214 366 C 215.076 364.625, 215.966 363.110, 215.978 362.634 C 215.990 362.158, 217.644 359.528, 219.653 356.791 C 236.611 333.690, 265.233 305.907, 295.166 283.492 C 304.639 276.397, 306.270 271.851, 301.411 266.077 C 297.491 261.417, 293.401 261.828, 285.127 267.713 C 281.482 270.306, 277.600 273.276, 276.500 274.315 C 275.400 275.354, 272.925 277.385, 271 278.829 C 259.002 287.828, 243.162 302.575, 223.307 323.232 C 211.416 335.603, 198.674 353.968, 194.124 365.297 C 191.992 370.604, 193.233 378.128, 197.251 384.260 C 198.213 385.728, 199 387.289, 199 387.728 C 199 388.561, 204.957 397.672, 207.838 401.244 C 220.135 416.493, 244.716 442.123, 256.519 452 C 258.162 453.375, 262.205 456.750, 265.503 459.500 C 268.801 462.250, 271.725 464.728, 272 465.006 C 272.275 465.284, 274.300 466.835, 276.500 468.453 C 278.700 470.071, 280.725 471.643, 281 471.947 C 282.197 473.271, 290.353 479.210, 297.552 484 C 298.792 484.825, 304.980 488.947, 311.302 493.161 C 317.624 497.375, 324.980 502.034, 327.648 503.516 C 330.317 504.997, 332.967 506.588, 333.538 507.051 C 335.004 508.240, 370.569 526.135, 376 528.416 C 378.475 529.455, 382.918 531.362, 385.874 532.653 C 388.830 533.944, 391.648 535, 392.135 535 C 392.623 535, 394.929 535.862, 397.261 536.916 C 404.142 540.027, 425.564 546.892, 435 549.010 C 438.025 549.689, 441.400 550.606, 442.500 551.046 C 447.176 552.920, 468.336 556.545, 489.500 559.098 C 503.765 560.819, 536.264 561.366, 547.500 560.075 C 570.405 557.444, 575.168 556.747, 589 554.001 C 611.923 549.452, 636.963 542.297, 648.739 536.931 C 651.071 535.869, 653.377 535, 653.865 535 C 654.352 535, 657.170 533.944, 660.126 532.653 C 663.082 531.362, 667.525 529.455, 670 528.416 C 675.431 526.135, 710.996 508.240, 712.462 507.051 C 713.033 506.588, 715.683 504.997, 718.352 503.516 C 721.020 502.034, 728.376 497.375, 734.698 493.161 C 741.020 488.947, 747.208 484.825, 748.448 484 C 755.647 479.210, 763.803 473.271, 765 471.947 C 765.275 471.643, 767.300 470.071, 769.500 468.453 C 771.700 466.835, 773.725 465.284, 774 465.006 C 774.275 464.728, 777.199 462.250, 780.497 459.500 C 783.795 456.750, 787.838 453.375, 789.481 452 C 801.355 442.063, 825.476 416.903, 838.328 401.050 C 840.668 398.164, 847 388.279, 847 387.513 C 847 387.192, 847.787 385.728, 848.749 384.260 C 852.767 378.128, 854.008 370.604, 851.876 365.297 C 844.608 347.202, 826.022 324.622, 793.604 294.500 C 790.099 291.243, 778.880 281.766, 773.500 277.517 C 770.750 275.345, 768.275 273.291, 768 272.952 C 767.725 272.613, 763.733 269.673, 759.130 266.418 C 754.526 263.163, 749.126 259.270, 747.130 257.767 C 745.133 256.264, 742.825 254.735, 742 254.368 C 741.175 254.002, 739.600 252.935, 738.500 251.999 C 736.427 250.233, 720.506 240.385, 713.500 236.535 C 711.300 235.326, 707.700 233.292, 705.500 232.016 C 696.044 226.531, 668.282 213.209, 661.500 210.902 C 659.300 210.153, 656.024 208.744, 654.220 207.771 C 652.415 206.797, 650.362 206, 649.657 206 C 648.952 206, 646.513 205.100, 644.236 204 C 641.959 202.900, 639.634 202, 639.069 202 C 638.504 202, 634.770 200.945, 630.771 199.656 C 611.733 193.518, 601.549 190.810, 588.500 188.417 C 571.799 185.354, 569.524 185.001, 559.500 183.911 C 548.287 182.693, 500.809 181.524, 499.889 182.444 M 498.833 201.501 C 498.514 201.820, 495.833 202.532, 492.876 203.084 C 487.949 204.003, 484.902 204.654, 476.500 206.580 C 474.850 206.959, 473.050 207.595, 472.500 207.993 C 471.950 208.392, 470.071 208.989, 468.324 209.320 C 461.468 210.617, 432.791 224.858, 426.777 229.952 C 426.075 230.547, 422.455 233.297, 418.734 236.063 C 401.917 248.561, 381.020 272.960, 372.964 289.500 C 372.161 291.150, 371.252 292.725, 370.946 293 C 370.187 293.681, 366.302 302.140, 364.382 307.293 C 363.520 309.607, 362.447 312.400, 361.998 313.500 C 360.751 316.555, 359.852 319.203, 358.941 322.500 C 358.486 324.150, 357.616 327.300, 357.009 329.500 C 352.409 346.178, 350.794 375.874, 353.500 394 C 354.444 400.325, 355.879 407.975, 356.689 411 C 357.498 414.025, 358.383 417.625, 358.655 419 C 358.928 420.375, 359.535 422.400, 360.004 423.500 C 360.474 424.600, 361.824 428.200, 363.006 431.500 C 366.050 440.004, 373.773 455.653, 377.683 461.240 C 379.507 463.847, 381 466.196, 381 466.460 C 381 466.725, 383.738 470.581, 387.084 475.031 C 393.684 483.807, 406.531 497.154, 414.500 503.511 C 417.250 505.705, 419.725 507.728, 420 508.006 C 422.542 510.577, 428.369 514.072, 429.433 513.664 C 430.167 513.383, 432.090 510.755, 433.706 507.826 C 435.322 504.897, 437.624 500.813, 438.822 498.750 C 448.872 481.445, 451.051 477.538, 451.649 475.750 C 451.970 474.787, 452.631 474, 453.117 474 C 453.602 474, 454 473.557, 454 473.015 C 454 472.473, 455.408 469.742, 457.129 466.945 L 460.258 461.860 456.129 457.893 C 450.819 452.791, 450.504 448.650, 455.077 444.077 C 459.609 439.544, 462.700 439.959, 471.848 446.326 C 480.287 452.201, 485.884 455.010, 494.072 457.481 C 510.395 462.408, 521.476 463.573, 533.500 461.627 C 552.737 458.514, 563.035 454.499, 576.184 444.986 C 602.956 425.616, 616.882 393.858, 613.118 360.756 C 610.419 337.027, 597.603 314.219, 579.122 300.258 C 574.930 297.091, 571.275 294.273, 571 293.995 C 570.725 293.717, 567.800 292.185, 564.500 290.590 C 558.998 287.932, 557.420 287.249, 551.500 284.959 C 549.441 284.163, 543.158 282.622, 537 281.403 C 531.710 280.356, 513.161 280.585, 507.500 281.766 C 504.750 282.340, 500.802 283.138, 498.726 283.540 C 496.650 283.941, 494.711 284.659, 494.417 285.135 C 494.123 285.611, 493.176 286, 492.314 286 C 490.808 286, 476.029 292.774, 475 293.935 C 474.725 294.246, 470.986 297.156, 466.690 300.402 C 453.361 310.474, 442.102 326.638, 436.223 344.143 C 429.777 363.334, 431.334 389.386, 440.084 408.739 C 442.618 414.346, 442.504 416.248, 439.411 419.923 C 437.253 422.489, 436.101 423, 432.483 423 C 426.480 423, 423.971 420.146, 420.464 409.328 C 419.603 406.673, 418.503 403.600, 418.018 402.500 C 417.085 400.383, 416.947 399.644, 414.335 382.725 C 412.794 372.748, 412.791 371.116, 414.285 360.725 C 417.064 341.408, 417.443 339.991, 423.571 326 C 426.730 318.789, 437.256 302.811, 442.871 296.704 C 446.985 292.230, 458.513 282.729, 464.509 278.870 C 470.688 274.895, 484.990 268.225, 490 266.983 C 492.475 266.370, 496.300 265.405, 498.500 264.838 C 500.700 264.271, 504.617 263.584, 507.205 263.310 C 509.793 263.037, 512.387 262.238, 512.970 261.536 C 513.678 260.683, 513.942 250.486, 513.765 230.879 L 513.500 201.500 506.456 201.210 C 502.582 201.051, 499.152 201.182, 498.833 201.501 M 532.750 201.563 C 532.337 201.987, 532 215.478, 532 231.544 C 532 253.705, 532.302 261, 533.250 261.770 C 533.938 262.329, 536.525 263.018, 539 263.303 C 541.475 263.588, 545.300 264.282, 547.500 264.845 C 549.700 265.408, 553.406 266.349, 555.735 266.936 C 560.517 268.141, 575.456 275.088, 581.500 278.916 C 587.328 282.608, 598.947 292.156, 603.055 296.629 C 608.344 302.387, 617.786 316.203, 621.080 323.004 C 626.518 334.231, 628.710 341.270, 630.947 354.694 C 631.423 357.550, 632.106 360.362, 632.465 360.944 C 632.901 361.648, 643.297 362, 663.686 362 L 694.254 362 693.690 357.250 C 691.959 342.702, 690.160 332.785, 688.020 326 C 687.587 324.625, 686.652 321.475, 685.942 319 C 685.233 316.525, 684.280 314.072, 683.826 313.550 C 680.465 309.684, 686.305 301, 692.266 301 C 697.344 301, 700.529 304.032, 702.507 310.749 C 703.438 313.912, 704.563 317.400, 705.007 318.500 C 705.451 319.600, 706.338 322.750, 706.977 325.500 C 707.617 328.250, 708.558 332.300, 709.069 334.500 C 713.106 351.890, 713.104 389.603, 709.065 407.500 C 708.569 409.700, 707.600 414.200, 706.913 417.500 C 706.226 420.800, 705.360 423.950, 704.987 424.500 C 704.615 425.050, 703.708 427.750, 702.972 430.500 C 702.235 433.250, 700.575 437.975, 699.283 441 C 697.990 444.025, 696.561 447.400, 696.106 448.500 C 694.386 452.663, 687.634 465.608, 685.855 468.154 C 684.835 469.614, 684 471.302, 684 471.904 C 684 472.507, 683.622 473, 683.161 473 C 682.699 473, 681.855 474.012, 681.286 475.250 C 680.176 477.665, 672.405 488.274, 667.553 494 C 665.921 495.925, 659.955 502.094, 654.293 507.709 C 648.632 513.324, 644 518.119, 644 518.365 C 644 518.939, 648.185 517.925, 649.500 517.033 C 650.050 516.660, 654.775 514.603, 660 512.461 C 665.225 510.319, 669.650 508.215, 669.833 507.784 C 670.017 507.353, 670.710 507, 671.374 507 C 672.609 507, 689.516 498.587, 698.500 493.501 C 701.250 491.944, 705.075 489.796, 707 488.726 C 716.523 483.436, 749.948 460.411, 760.999 451.528 C 777.848 437.987, 778.531 437.384, 793.869 422.500 C 809.368 407.461, 819.951 395.166, 828.180 382.641 C 834.330 373.278, 835.036 370.510, 832.326 366.375 C 831.405 364.970, 829.943 362.534, 829.076 360.963 C 827.473 358.058, 817.449 344.986, 813.120 340.155 C 798.524 323.870, 779.840 306.310, 762 292.111 C 758.425 289.265, 754.825 286.388, 754 285.716 C 746.875 279.917, 714.740 258, 713.362 258 C 713.058 258, 711.614 257.164, 710.154 256.143 C 706.525 253.603, 699.451 249.663, 687 243.245 C 681.225 240.269, 676.072 237.421, 675.550 236.917 C 675.027 236.412, 674.059 236, 673.398 236 C 672.737 236, 668.440 234.231, 663.848 232.068 C 647.202 224.228, 639.841 222.217, 646 227.191 C 654.671 234.195, 668.647 249.179, 676.261 259.634 C 681.042 266.198, 681.425 271.775, 677.354 275.548 C 674.789 277.925, 670.887 278.661, 667.581 277.393 C 666.711 277.059, 663.001 272.896, 659.337 268.143 C 648.925 254.633, 623.942 231, 620.072 231 C 619.574 231, 619.017 230.589, 618.833 230.087 C 617.725 227.052, 581.214 209, 576.184 209 C 575.048 209, 573.872 208.602, 573.571 208.115 C 573.271 207.629, 571.781 206.974, 570.262 206.660 C 568.743 206.346, 565.362 205.619, 562.750 205.045 C 560.138 204.470, 555.862 203.536, 553.250 202.969 C 546.604 201.526, 533.650 200.638, 532.750 201.563 M 477.077 324.589 L 474 327.178 474 371.415 L 474 415.651 476.460 417.962 C 479.775 421.077, 486.293 421.151, 489.336 418.110 C 491.475 415.971, 491.503 415.470, 491.803 374.223 C 491.970 351.275, 491.833 331.016, 491.499 329.202 C 491.081 326.932, 489.896 325.297, 487.696 323.956 C 483.404 321.339, 480.751 321.497, 477.077 324.589 M 557.500 344.411 L 554.500 346.811 554.500 381.378 C 554.500 415.486, 554.529 415.974, 556.664 418.109 C 559.707 421.151, 566.225 421.077, 569.540 417.962 L 572 415.651 572 381.377 L 572 347.102 568.656 344.551 C 564.482 341.367, 561.352 341.328, 557.500 344.411 M 516.923 364.923 L 514 367.846 514 391.749 L 514 415.651 516.460 417.962 C 520.015 421.302, 526.364 421.165, 529.596 417.680 C 531.994 415.094, 532 415.025, 532 391.467 L 532 367.846 529.077 364.923 C 527.082 362.928, 525.152 362, 523 362 C 520.848 362, 518.918 362.928, 516.923 364.923 M 632.509 381.986 C 631.955 382.882, 630.528 389.852, 629.333 397.500 C 629.075 399.150, 628.467 401.400, 627.982 402.500 C 627.497 403.600, 626.371 406.750, 625.479 409.500 C 621.537 421.651, 611.495 437.177, 600.053 448.814 C 593.200 455.784, 578.567 466.344, 571.363 469.518 C 569.513 470.333, 566.538 471.642, 564.750 472.428 C 551.990 478.033, 541.428 479.962, 523.386 479.983 C 504.540 480.004, 493.135 478.002, 482.306 472.770 C 477.201 470.303, 476.095 470.657, 473.388 475.624 C 472.226 477.756, 467.122 486.700, 462.045 495.500 C 456.968 504.300, 451.914 513.075, 450.813 515 C 449.712 516.925, 448.404 518.928, 447.906 519.450 C 447.408 519.973, 447 521.384, 447 522.586 C 447 524.756, 447.658 525.198, 457 529.299 C 467.757 534.022, 485.455 538.800, 500.500 541.044 C 509.346 542.363, 542.614 541.799, 552 540.170 C 558.960 538.962, 573.869 535.264, 576.500 534.092 C 577.600 533.603, 580.075 532.660, 582 531.998 C 587.852 529.985, 598.823 524.798, 607.925 519.741 C 635.497 504.421, 661.060 477.429, 675.396 448.500 C 678.939 441.350, 682.155 434.375, 682.542 433 C 682.928 431.625, 683.559 430.050, 683.942 429.500 C 684.326 428.950, 685.223 426.475, 685.936 424 C 686.649 421.525, 687.614 418.375, 688.081 417 C 689.448 412.979, 694 386.931, 694 383.135 C 694 381.002, 693.974 381, 663.559 381 C 644.642 381, 632.887 381.373, 632.509 381.986 M 377 563.143 C 367.172 565.848, 360.627 571.132, 355.504 580.500 C 354 583.250, 351.921 586.694, 350.885 588.154 C 349.848 589.614, 349 591.018, 349 591.275 C 349 591.531, 346.161 596.637, 342.691 602.620 C 339.221 608.604, 336.039 614.400, 335.620 615.500 C 329.991 630.275, 336.657 646.661, 351 653.307 C 354.314 654.842, 357.477 655.387, 363 655.375 C 371.842 655.355, 377.632 653.025, 383.255 647.223 C 386.514 643.860, 388.326 641.016, 396.780 626 C 398.173 623.525, 400.943 618.800, 402.935 615.500 C 410.355 603.211, 411.438 600.153, 411.470 591.413 C 411.498 583.820, 411.276 582.963, 407.838 577.413 C 403.453 570.332, 396.225 564.972, 388.705 563.224 C 382.693 561.826, 381.810 561.820, 377 563.143 M 656.500 563.299 C 649.752 565.063, 642.206 570.870, 638.158 577.413 C 634.725 582.961, 634.502 583.823, 634.530 591.413 C 634.563 600.477, 635.462 602.845, 644.727 618.289 C 647.627 623.123, 650 627.317, 650 627.609 C 650 627.901, 651.257 630.021, 652.793 632.320 C 654.330 634.619, 656.120 637.737, 656.771 639.248 C 658.689 643.699, 665.730 650.649, 670.796 653.090 C 677.217 656.186, 688.567 656.287, 695 653.307 C 702.354 649.899, 709.092 642.550, 711.100 635.746 C 712.458 631.142, 712.377 621.673, 710.943 617.326 C 710.272 615.294, 706.861 608.707, 703.362 602.687 C 699.863 596.666, 697 591.531, 697 591.275 C 697 591.018, 696.152 589.614, 695.115 588.154 C 694.079 586.694, 692 583.250, 690.496 580.500 C 685.265 570.935, 678.775 565.792, 668.500 563.071 C 663.842 561.837, 661.953 561.873, 656.500 563.299 M 375.783 584.286 C 373.978 586.093, 371.033 590.256, 369.239 593.536 C 367.446 596.816, 364.795 601.525, 363.348 604 C 361.901 606.475, 359.905 609.933, 358.912 611.685 C 357.920 613.436, 355.958 616.690, 354.554 618.915 C 352.939 621.473, 352 624.400, 352 626.877 C 352 633.809, 360.518 639.041, 367.466 636.375 C 368.811 635.859, 377 624.996, 377 623.729 C 377 623.519, 380.600 617.088, 385 609.438 C 393.636 594.423, 394.857 589.683, 391.171 585.500 C 386.304 579.977, 380.543 579.523, 375.783 584.286 M 658.549 582.309 C 650.507 587.218, 650.934 591.935, 661 609.438 C 665.400 617.088, 669 623.519, 669 623.729 C 669 624.996, 677.189 635.859, 678.534 636.375 C 685.332 638.983, 694.010 633.802, 693.988 627.146 C 693.981 625.052, 692.866 621.585, 691.367 619 C 689.932 616.525, 687.976 613.150, 687.021 611.500 C 686.065 609.850, 684.099 606.475, 682.652 604 C 681.205 601.525, 678.554 596.816, 676.761 593.536 C 670.665 582.386, 664.573 578.631, 658.549 582.309 M 515.500 583.606 C 510.884 584.763, 504.577 588.677, 501.463 592.314 C 494.612 600.318, 494.532 600.736, 494.196 630 C 493.993 647.698, 494.272 657.861, 495.034 660.599 C 496.722 666.663, 502.689 673.848, 508.958 677.366 C 513.869 680.121, 515.279 680.429, 523 680.429 C 530.721 680.429, 532.131 680.121, 537.042 677.366 C 543.324 673.840, 548.961 667.042, 550.819 660.748 C 551.750 657.594, 552.015 649.266, 551.798 629.962 C 551.509 604.284, 551.429 603.361, 549.096 598.797 C 544.077 588.977, 536.185 583.943, 525.024 583.442 C 520.886 583.257, 516.600 583.330, 515.500 583.606 M 515.962 603.889 L 512.500 606.777 512.198 629.878 C 511.936 649.894, 512.121 653.452, 513.583 656.533 C 517.584 664.965, 528.425 664.946, 532.432 656.501 C 533.914 653.379, 534.093 649.930, 533.817 629.846 L 533.500 606.778 530.038 603.889 C 525.372 599.996, 520.628 599.996, 515.962 603.889" stroke="none" fill="#09d3a3" fill-rule="evenodd"/></svg>